<svg xmlns="http://www.w3.org/2000/svg" xmlns:xlink="http://www.w3.org/1999/xlink" width="363" height="93.23" viewBox="0 0 363 93.23">
  <defs>
    <clipPath id="clip-iPhone_13_12_Pro_1">
      <rect width="363" height="93.23"/>
    </clipPath>
  </defs>
  <g id="iPhone_13_12_Pro_1" data-name="iPhone 13, 12 Pro – 1" clip-path="url(#clip-iPhone_13_12_Pro_1)">
    <rect id="Rectangle_1" data-name="Rectangle 1" width="363" height="93" fill="none"/>
    <path id="Vector-1" d="M47.039,19.93a27.448,27.448,0,0,0-4.723.411c-.247.055-.329-.192-.137-.329l4.888-3.7,4.888,3.7c.192.137.082.356-.137.329a27.448,27.448,0,0,0-4.723-.411ZM43.3,43.916c.989.768,1.675,2.494,3.735,2.494s2.746-1.727,3.735-2.494a.489.489,0,0,0-.3-.3,16.474,16.474,0,0,1-3.405.3,16.475,16.475,0,0,1-3.405-.3.489.489,0,0,0-.3.3Zm2.636-3.427a1.947,1.947,0,0,0-1.263.576.482.482,0,0,0,.165.356c.824.137,1.208.6,2.169.6s1.346-.466,2.169-.6a.611.611,0,0,0,.165-.356,1.939,1.939,0,0,0-1.236-.576c-.384,0-.522.219-1.1.219s-.686-.219-1.1-.219ZM93.693,52.935c-5.327.877-7.222-3.865-12.687-3.618.33,1.151.577,2.33.8,3.536,4.5,0,6.316,4.194,11.313,3.564-.247,1.288-.577,2.549-.934,3.81-3.954.384-5.355-3.536-9.94-3.427.055,1.1.055,2.056.027,3.07,3.9-.055,5.19,3.564,8.9,3.4q-.7,1.892-1.565,3.7c-2.664-.137-3.6-3.564-7.661-3.29-.137.877-.275,1.754-.467,2.6,3.542-.247,4.284,2.988,6.838,3.262a39.321,39.321,0,0,1-2.087,3.426c-1.51-.795-2.8-3.235-5.629-3.372.3-.9.549-1.809.769-2.741a11.818,11.818,0,0,1-7.826-3.18c.769-4.468-6.151-8.991-6.151-12.253,0-3.536,1.785-5.51,1.785-10.28A15.077,15.077,0,0,0,64.86,31.114a7.28,7.28,0,0,0-1.62-1.288c2.389,2.96,4.229,6.442,4.229,10.5,0,4.5-2.087,6.881-2.087,11.02s6.069,7.758,6.069,12.034c0,1.7-.549,3.344-2.307,6.552,2.718,2.714,6.288,4.194,8.595,4.194a1.3,1.3,0,0,0,1.4-.795c.22-.493.439-1.014.659-1.535,2.471.11,3.6,2.357,4.97,3.235-.741,1.014-1.538,1.974-2.362,2.933-.906-1.014-2.142-2.714-3.954-3.207-.33.631-.659,1.233-1.016,1.864,1.565.411,2.609,1.974,3.432,3.015-.879.932-1.812,1.809-2.773,2.659a9.072,9.072,0,0,0-2.581-2.741c-.384.521-.8,1.042-1.208,1.535a7.92,7.92,0,0,1,2.2,2.577c-1.1.877-2.252,1.727-3.433,2.522-.577-4.77-7.112-8.032-5.355-13.569a7.148,7.148,0,0,0-1.263,3.673c0,4,4.284,7.182,4.613,11.157-.879.521-1.785,1.014-2.719,1.508-.165-4.386-4.7-9.156-4.7-12.774,0-4,5.272-8.032,5.272-12.774s-6.069-8-6.069-12.171,2.581-6.552,2.581-11.87A14.14,14.14,0,0,0,60.714,29a9.266,9.266,0,0,0-1.593-1.124c2.691,3.235,4.284,6.168,4.284,10.636,0,5.016-2.966,7.785-2.966,12.692s5.959,7.621,5.959,12.2-5.547,8.416-5.547,13.131c0,4.276,4.888,8.553,4.97,13.624-1.071.466-2.169.877-3.268,1.288.632-5.126-4.888-10.417-4.888-14.584,0-4.578,5.739-8.5,5.739-13.432s-5.849-7.209-5.849-12.281c0-5.044,3.6-7.867,3.6-13.432a13.536,13.536,0,0,0-5.3-10.691.832.832,0,0,0-.192-.137c-.3-.219-.549.055-.33.3a14.34,14.34,0,0,1,3.405,9.731c0,5.1-4.119,9.265-4.119,14.2,0,5.839,5.547,7.511,5.547,12.308s-5.931,8.635-5.931,13.706c0,4.715,5.629,9.951,4.641,15.406-1.126.3-2.279.548-3.432.74,1.043-6.771-4.449-11.65-4.449-16.091,0-4.8,6.151-9.074,6.151-13.789,0-4.413-4.421-5.866-5-10.389a1.057,1.057,0,0,0-1.263-.959,15,15,0,0,1-3.844.74,16.3,16.3,0,0,1-3.844-.74,1.057,1.057,0,0,0-1.263.959c-.577,4.523-5,5.976-5,10.389,0,4.688,6.151,8.964,6.151,13.789,0,4.441-5.492,9.32-4.449,16.091-1.153-.219-2.307-.466-3.432-.74-.961-5.455,4.641-10.691,4.641-15.406,0-5.1-5.931-8.909-5.931-13.706s5.547-6.469,5.547-12.308c0-4.962-4.119-9.1-4.119-14.2a14.175,14.175,0,0,1,3.432-9.731c.22-.274-.028-.521-.33-.3a.835.835,0,0,1-.192.137,13.536,13.536,0,0,0-5.3,10.691c0,5.592,3.6,8.388,3.6,13.432S30.7,58.5,30.7,63.434s5.739,8.854,5.739,13.432c0,4.167-5.492,9.457-4.888,14.584-1.1-.384-2.2-.822-3.268-1.288.082-5.071,4.97-9.348,4.97-13.624,0-4.688-5.547-8.553-5.547-13.131s5.959-7.292,5.959-12.2S30.7,43.532,30.7,38.516c0-4.468,1.565-7.4,4.284-10.636A7.152,7.152,0,0,0,33.364,29a14.242,14.242,0,0,0-4.723,10.362c0,5.318,2.581,7.7,2.581,11.87s-6.069,7.429-6.069,12.171,5.272,8.772,5.272,12.774c0,3.591-4.531,8.388-4.668,12.774-.934-.466-1.84-.959-2.719-1.508.33-3.975,4.613-7.155,4.613-11.157a7.331,7.331,0,0,0-1.263-3.673c1.757,5.537-4.778,8.8-5.355,13.569-1.181-.795-2.334-1.645-3.46-2.522a8.212,8.212,0,0,1,2.2-2.577c-.412-.493-.824-1.014-1.208-1.535a9.4,9.4,0,0,0-2.581,2.741c-.961-.85-1.895-1.727-2.773-2.659.824-1.014,1.895-2.6,3.432-3.015-.357-.6-.714-1.233-1.016-1.864-1.812.466-3.048,2.193-3.954,3.207-.824-.932-1.62-1.919-2.362-2.933,1.373-.9,2.5-3.153,4.97-3.235.192.521.412,1.014.659,1.535a1.316,1.316,0,0,0,1.4.795c2.307,0,5.849-1.48,8.595-4.194-1.785-3.235-2.307-4.879-2.307-6.552,0-4.276,6.1-7.867,6.1-12.034s-2.087-6.524-2.087-11.02c0-4.057,1.84-7.566,4.229-10.5a10.433,10.433,0,0,0-1.62,1.288,14.924,14.924,0,0,0-4.339,10.033c0,4.77,1.785,6.743,1.785,10.28,0,3.262-6.92,7.813-6.151,12.253a11.818,11.818,0,0,1-7.826,3.18c.22.932.467,1.837.769,2.741-2.856.137-4.146,2.577-5.657,3.372C7.085,71.85,6.4,70.726,5.739,69.547c2.526-.247,3.3-3.509,6.838-3.262-.192-.85-.33-1.727-.467-2.6-4.064-.274-5,3.152-7.661,3.29q-.865-1.809-1.565-3.7c3.735.164,5-3.427,8.9-3.4-.027-1.042,0-2.111.028-3.07-4.586-.11-5.986,3.81-9.941,3.427-.357-1.234-.686-2.522-.934-3.81,5,.631,6.81-3.591,11.313-3.564a30.049,30.049,0,0,1,.8-3.536c-5.465-.247-7.359,4.5-12.687,3.618-.137-1.1-.247-2.22-.3-3.344,6.178.685,8.513-4.386,14.142-3.756a31.589,31.589,0,0,1,1.84-3.893C8.979,40.709,6.563,46.6,0,45.7a47.06,47.06,0,0,1,94.078,0c-6.563.9-8.979-4.989-16.037-3.756a33.594,33.594,0,0,1,1.84,3.893C85.51,45.2,87.844,50.3,94.023,49.59c-.055,1.124-.165,2.248-.3,3.344ZM15.542,31.114A12.225,12.225,0,0,0,10.6,23.055a.421.421,0,0,0-.686.411c.549,7.018-3.57,13.131-8.622,18.5,5.217,1.563,9.666-5.154,16.421-2.8A35.491,35.491,0,0,1,26.8,29.936,12.191,12.191,0,0,0,15.57,31.142Zm22.49.192c-.082.247.028.411.3.274A6.416,6.416,0,0,1,41,31.059a5.5,5.5,0,0,1,4.284,1.782,7.626,7.626,0,0,1-.028,4.441c-.741-.165-.989-.74-1.7-.74s-1.263.493-2.5.493c-1.208,0-1.346-.576-2.142-.576-.934,0-1.126.959-1.126,2.056,0,4.852,4.476,11.541,9.226,11.541s9.227-6.689,9.227-11.541c0-1.1-.22-2.029-1.208-2.138a2.951,2.951,0,0,1-2.06.658c-1.208,0-1.538-.493-2.279-.493-.851,0-.769,1.809-1.812,1.919a8.539,8.539,0,0,1-.137-5.619,5.5,5.5,0,0,1,4.284-1.782,6.287,6.287,0,0,1,2.636.521c.275.137.384-.027.3-.274-.961-3.18-4.613-5.647-8.979-5.647S38.966,28.126,38,31.306ZM50.911,33.8a1.211,1.211,0,0,0,.027.822c1.895-.658,3.57-.685,4.394.219a1.428,1.428,0,0,0,.577-1.151c0-.63-.632-1.069-1.95-1.069A4.159,4.159,0,0,0,50.911,33.8Zm-7.387.9c.082-.987-1.7-2.083-3.487-2.083-1.291,0-1.95.439-1.95,1.069a1.428,1.428,0,0,0,.577,1.151C39.57,33.938,41.519,33.965,43.524,34.705ZM59.918,21.794A34.56,34.56,0,0,1,63.9,13.872a17.271,17.271,0,0,0-10.737,4.8l-2.087-5.483,4.668-4.112L49.51,8.636l-2.5-5.784-2.5,5.784-6.233.439,4.641,4.112-2.087,5.483a17.126,17.126,0,0,0-10.737-4.8,34.56,34.56,0,0,1,3.982,7.922,15.5,15.5,0,0,0-8.87-3.4A42.773,42.773,0,0,1,30.48,26.92a.568.568,0,0,0,.851.274,35.378,35.378,0,0,1,15.68-3.673,35.012,35.012,0,0,1,15.68,3.673.568.568,0,0,0,.824-.274,40.386,40.386,0,0,1,5.272-8.525A15.5,15.5,0,0,0,59.918,21.794ZM92.732,41.942c-5.053-5.373-9.172-11.458-8.622-18.5a.423.423,0,0,0-.687-.411,12.226,12.226,0,0,0-4.943,8.059,12.191,12.191,0,0,0-11.231-1.206,35.493,35.493,0,0,1,9.089,9.238c6.755-2.33,11.2,4.359,16.421,2.8Z" transform="translate(0 -0.056)" fill="#007049"/>
    <path id="Vector" d="M140.664,8.259c.027-4.359-3.213-6.8-8.925-6.8H117.268l-.055,25.549h13.894c6.7-.027,10.051-2.385,10.051-7.21a5.537,5.537,0,0,0-5.437-5.839C139.016,13.248,140.636,11.384,140.664,8.259ZM129.1,11.549h-3.158V7h3.185c1.675,0,2.774.713,2.774,2.248,0,1.453-1.071,2.275-2.829,2.275Zm.055,9.923h-3.213l.027-4.8h3.241c1.73,0,2.828.767,2.828,2.385C132.041,20.595,130.943,21.472,129.158,21.472Zm-24.247-4a7.712,7.712,0,0,0,4.805-7.237c.028-6.031-4.064-8.772-9.885-8.772h-13.7L86.046,27.01h8.787l.027-7.566h2.224l4.531,7.566h9.5Zm-6.893-4.55H94.888L94.915,7.6h3.158a2.43,2.43,0,0,1,2.746,2.632A2.525,2.525,0,0,1,98.018,12.919ZM257.972,18.95c0-5.894-4.97-7.511-8.842-8.361-2.938-.631-4.311-.932-4.311-2.111,0-1.563,1.977-1.7,3.021-1.7a14.062,14.062,0,0,1,7.194,2.385l2.389-5.811A27.252,27.252,0,0,0,247.071.94c-5.986,0-10.655,2.906-10.655,8.745,0,4.8,3.6,6.661,7.552,7.648,2.746.685,4.5.877,4.5,2.275s-1.345,1.782-2.663,1.782a11.826,11.826,0,0,1-7.36-2.741L235.565,24.3a19.924,19.924,0,0,0,10.655,3.289c5.766,0,11.725-2.056,11.752-8.58Zm-235.441,0c.027-5.894-4.943-7.511-8.815-8.361C10.806,9.959,9.378,9.657,9.4,8.479c0-1.563,1.977-1.672,3.021-1.672A14.064,14.064,0,0,1,19.62,9.191L22.009,3.38A27.106,27.106,0,0,0,11.657.995C5.67.995,1.03,3.9,1,9.74c0,4.8,3.57,6.634,7.551,7.621,2.746.685,4.5.9,4.5,2.275s-1.346,1.782-2.664,1.782a11.7,11.7,0,0,1-7.387-2.741L.124,24.323a19.69,19.69,0,0,0,10.654,3.29c5.767,0,11.7-2.056,11.725-8.608Zm193.977-1.233-.028,9.32-8.869-.028.082-25.549h8.87l-.028,9.348,5.383-9.348H231.8l-8.348,12.582,9.364,12.966h-10.6l-5.685-9.293Zm-17.547.685a9.013,9.013,0,0,1-5.9,2.3c-3.57,0-5.959-2.96-5.959-6.579,0-3.673,2.115-6.744,5.849-6.744a9.838,9.838,0,0,1,6.041,2.495l2.719-6.5A21.039,21.039,0,0,0,191.519.94c-7.688,0-13.51,5.291-13.537,13.1-.028,8.251,5.629,13.46,13.73,13.46a18.536,18.536,0,0,0,9.968-2.495l-2.719-6.634ZM65.89,7.272l-2.279,8.745h4.558Zm5.822,19.71L70.2,22.295H61.634l-1.62,4.688H50.924L60.233,1.434H71.767l9.062,25.549H71.712ZM26.1,7.9l.028-6.469H50.54L50.513,7.9H42.879l-.055,19.079H33.68L33.735,7.9Zm146.334,7.456c-.028,7.895-4.394,12.144-12.6,12.144-8.046,0-12.577-4.359-12.55-12.062l.055-14.008h9.035L156.343,15c0,3.756.989,5.428,3.433,5.428s3.6-1.48,3.624-5.811l.028-13.185h9.034l-.055,13.926Z" transform="translate(105.028 32.339)"/>
  </g>
</svg>
